# Alias OBJ Model File
# Exported from SketchUp, (c) 2000-2012 Trimble Navigation Limited
# File units = inches

mtllib Light_Ground_Mount_Flood-w-bulb.mtl

g Mesh1 Group1 IR_lamp_bulb_100W_skp1 Model

usemtl RPS_color_white_glow25
v -0.308156 3.3207 -2.30792
vt -0.628393 0.763959
vn -0.822702 -0.508457 0.254229
v -0.246353 3.1971 -2.28883
vt -0.281026 -0.305127
v -0.26996 3.27349 -2.25792
vt -0.0663414 0.355604
f 1/1/1 2/2/1 3/3/1

v -0.26996 3.1971 -2.35792
vt -0.97576 -0.305127
f 2/2/1 1/1/1 4/4/1

v -0.308156 3.27349 -2.36973
vt -1.19044 0.355604
f 4/4/1 1/1/1 5/5/1

v -0.26996 3.3971 -2.31973
vt -0.843077 1.42469
vn -0.822702 0.508457 -0.254229
f 6/6/2 5/5/2 1/1/2

v -0.246353 3.3971 -2.38883
vt -1.53781 1.42469
f 5/5/2 6/6/2 7/7/2

v -0.208156 3.3971 -2.27702
vt 0.909418 0.365243
vn 0 1 -0
vt 0.562051 1.43433
vt 0.347367 0.773597
f 8/8/3 7/9/3 6/10/3

v -0.16996 3.3971 -2.38883
vt 1.25679 1.43433
f 7/9/3 8/8/3 9/11/3

v -0.146353 3.3971 -2.31973
vt 1.47147 0.773597
f 9/11/3 8/8/3 10/12/3

v -0.208156 3.3207 -2.23883
vt 0.735735 0.616215
vn 0.518928 0.518926 0.679286
vt 1.64515 1.27695
vt 0.950419 1.27695
f 11/13/4 10/14/4 8/15/4

v -0.108156 3.3207 -2.30792
vt 1.85984 0.616215
f 11/13/4 12/16/4 10/14/4

v -0.146353 3.27349 -2.25792
vt 1.29779 0.207861
f 12/16/4 11/13/4 13/17/4

vt 0.347367 0.446915
vn 8.81147e-014 -0.52573 0.850651
vt 1.47147 0.446915
vt 0.909418 0.855269
f 3/18/5 13/19/5 11/20/5

vt 0.562051 -0.213817
f 2/21/5 13/19/5 3/18/5

v -0.16996 3.1971 -2.28883
vt 1.25679 -0.213817
f 13/19/5 2/21/5 14/22/5

vt -0.562051 0.478109
vn 1.61741e-015 -1 -2.91311e-016
v -0.208156 3.1971 -2.40063
vt -0.909418 1.5472
vt -1.25679 0.478109
f 2/23/6 15/24/6 14/25/6

vt -0.347367 1.13884
f 15/24/6 2/23/6 4/26/6

vt -0.735735 0.981457
vn -0.518928 -0.518927 -0.679286
vt -1.64515 0.320725
vt -0.950419 0.320725
f 5/27/7 15/28/7 4/29/7

v -0.208156 3.27349 -2.43883
vt -1.85984 0.981457
f 15/28/7 5/27/7 16/30/7

v -0.26996 3.3207 -2.41973
vt -1.29779 1.38981
f 16/30/7 5/27/7 17/31/7

vt -1.7525 0.763959
f 5/5/2 7/7/2 17/32/2

vt -1.25679 0.742405
vn 1.53536e-015 0.52573 -0.850652
vt -0.347367 0.0816735
vt -0.562051 0.742405
f 9/33/8 17/34/8 7/35/8

v -0.146353 3.3207 -2.41973
vt -1.47147 0.0816735
f 18/36/8 17/34/8 9/33/8

vt -0.909418 -0.326681
f 17/34/8 18/36/8 16/37/8

v -0.108156 3.27349 -2.36973
vt -0.735735 1.45957
vn 0.518928 -0.518927 -0.679286
vt 0.388368 1.45957
vt -0.173684 1.86792
f 19/38/9 16/39/9 18/40/9

v -0.146353 3.1971 -2.35792
vt -0.521051 0.798834
f 20/41/9 16/39/9 19/38/9

vt 0.173684 0.798834
f 16/39/9 20/41/9 15/42/9

vt -1.47147 1.13884
f 14/25/6 15/24/6 20/43/6

vt 1.19044 1.53756
vn 0.822702 -0.508457 0.254229
vt 0.843077 0.468469
vt 1.53781 0.468469
f 12/44/10 14/45/10 20/46/10

vt 0.628393 1.1292
f 14/45/10 12/44/10 13/47/10

vt 1.7525 1.1292
f 12/44/10 20/46/10 19/48/10

vt 0.628393 -0.417992
vn 0.822702 0.508457 -0.254229
vt 0.281026 0.651094
vt 0.0663414 -0.00963766
f 19/49/11 10/50/11 12/51/11

vt 0.97576 0.651094
f 10/50/11 19/49/11 9/52/11

vt 1.19044 -0.00963766
f 9/52/11 19/49/11 18/53/11

vt 0.735735 1.09432
vn -0.518928 0.518926 0.679286
vt -0.388368 1.09432
vt 0.173683 0.685969
f 11/54/12 1/55/12 3/56/12

vt -0.173684 1.75506
f 1/55/12 11/54/12 6/57/12

vt 0.52105 1.75506
f 6/57/12 11/54/12 8/58/12

g Mesh2 Model

usemtl _DarkGray_
v 0.197862 1.73069 0.383284
vt 0.197862 1.73069
vn 5.73018e-016 1.28298e-016 1
v -0.189638 2.22045e-015 0.383284
vt -0.189638 2.17127e-015
v 0.197862 2.22045e-015 0.383284
vt 0.197862 2.17127e-015
f 21/59/13 22/60/13 23/61/13

v -0.189638 1.73069 0.383284
vt -0.189638 1.73069
f 22/60/13 21/59/13 24/62/13

vt 0.197862 0.818856
vn 3.03532e-016 0.766044 0.642788
v -0.189638 2.84316 -0.942504
vt -0.189638 2.54955
vt -0.189638 0.818856
f 21/63/14 25/64/14 24/65/14

v 0.197862 2.84316 -0.942504
vt 0.197862 2.54955
f 25/64/14 21/63/14 26/66/14

vt -0.383284 1.73069
vn 1 -1.13343e-016 -2.43065e-016
v 0.197862 1.36931 -0.391716
vt 0.391716 1.36931
vt 0.942504 2.84316
f 21/67/15 27/68/15 26/69/15

v 0.197862 2.22045e-015 -0.391716
vt 0.391716 2.24287e-015
f 21/67/15 28/70/15 27/68/15

vt -0.383284 2.24287e-015
f 28/70/15 21/67/15 23/71/15

vt 0.197862 -0.383284
v 1.3666 0 1.88096
vt 1.3666 -1.88096
vt 0.197862 0.391716
f 23/72/3 29/73/3 28/74/3

v 0 0 2.325
vt 0 -2.325
f 23/72/3 30/75/3 29/73/3

vt -0.189638 -0.383284
f 22/76/3 30/75/3 23/72/3

v -1.3666 0 -1.88096
vt -1.3666 1.88096
f 31/77/3 30/75/3 22/76/3

v -1.3666 0 1.88096
vt -1.3666 -1.88096
f 31/77/3 32/78/3 30/75/3

v -2.21121 0 -0.718465
vt -2.21121 0.718465
f 33/79/3 32/78/3 31/77/3

v -2.21121 0 0.718465
vt -2.21121 -0.718465
f 32/78/3 33/79/3 34/80/3

v -0.189638 2.22045e-015 -0.391716
vt -0.189638 0.391716
f 35/81/3 31/77/3 22/76/3

v -6.66134e-016 0 -2.325
vt -6.66134e-016 2.325
f 31/77/3 35/81/3 36/82/3

f 36/82/3 35/81/3 28/74/3

v -0.189638 1.36931 -0.391716
vt 0.189638 1.36931
vn -2.29207e-015 0 -1
vt -0.197862 2.22045e-015
vt 0.189638 2.22045e-015
f 37/83/16 28/84/16 35/85/16

vt -0.197862 1.36931
f 28/84/16 37/83/16 27/86/16

vt 0.189638 1.18024
vn -7.12895e-016 -0.766044 -0.642788
v 0.197862 2.24948 -1.44066
vt -0.197862 2.54955
vt -0.197862 1.18024
f 37/87/17 38/88/17 27/89/17

v -0.189638 2.24948 -1.44066
vt 0.189638 2.54955
f 38/88/17 37/87/17 39/90/17

vt -0.391716 1.36931
vn -1 0 -0
vt -0.942504 2.84316
vt -1.44066 2.24948
f 37/91/18 25/92/18 39/93/18

vt 0.383284 2.22045e-015
f 22/94/18 25/92/18 37/91/18

vt 0.383284 1.73069
f 25/92/18 22/94/18 24/95/18

vt -0.391716 2.22045e-015
f 35/96/18 22/94/18 37/91/18

vt -0.189638 0.797159
vn 4.60197e-016 -0.642788 0.766044
vt 0.197862 1.57216
vt -0.189638 1.57216
f 39/97/19 26/98/19 25/99/19

vt 0.197862 0.797159
f 26/98/19 39/97/19 38/100/19

vn 2.43335e-017 -0.642788 0.766044
v -2.51464 1.35895 -2.18791
vt -2.51464 -0.365341
f 39/97/20 40/101/20 38/100/20

v -2.51464 3.73369 -0.195264
vt -2.51464 2.73466
f 40/101/20 39/97/20 41/102/20

f 41/102/20 39/97/20 25/99/20

v 2.32911 3.73369 -0.195264
vt 2.32911 2.73466
f 41/102/20 25/99/20 42/103/20

f 26/98/20 42/103/20 25/99/20

f 38/100/20 42/103/20 26/98/20

v 2.32911 1.35895 -2.18791
vt 2.32911 -0.365341
f 38/100/20 43/104/20 42/103/20

f 43/104/20 38/100/20 40/101/20

vt 2.51464 2.57556
vn -4.77048e-018 -0.84682 -0.53188
v 2.78927 2.50329 -4.00984
vt -2.78927 4.72706
vt -2.32911 2.57556
f 40/105/21 44/106/21 43/107/21

v -2.97479 2.50329 -4.00984
vt 2.97479 4.72706
f 44/106/21 40/105/21 45/108/21

vt -2.56892 1.63451
vn -0.977476 -0.135658 0.161671
v -2.97479 5.32923 -1.63859
vt -2.10206 5.64184
vt -4.44152 2.78953
f 40/109/22 46/110/22 45/111/22

vt -0.602983 4.03141
f 46/110/22 40/109/22 41/112/22

vt -2.51464 2.89988
vn 2.82078e-017 0.670849 0.741594
v 2.78927 5.32923 -1.63859
vt 2.78927 5.05138
vt -2.97479 5.05138
f 41/113/23 47/114/23 46/115/23

vt 2.32911 2.89988
f 47/114/23 41/113/23 42/116/23

vt 2.53864 1.60968
vn 0.977476 -0.135658 0.161671
vt 2.07178 5.61701
vt 0.572709 4.00658
f 43/117/24 47/118/24 42/119/24

vt 4.41124 2.7647
f 47/118/24 43/117/24 44/120/24

vt 2.78927 -0.659841
vn 8.23123e-018 -0.642788 0.766044
v 3.17677 5.62607 -1.38951
vt 3.17677 3.41666
vt 2.78927 3.02916
f 44/121/25 48/122/25 47/123/25

v 3.17677 2.20645 -4.25892
vt 3.17677 -1.04734
f 44/121/25 49/124/25 48/122/25

v -3.36229 2.20645 -4.25892
vt -3.36229 -1.04734
f 49/124/25 44/121/25 50/125/25

vt -2.97479 -0.659841
f 45/126/25 50/125/25 44/121/25

v -3.36229 5.62607 -1.38951
vt -3.36229 3.41666
f 50/125/25 45/126/25 51/127/25

vt -2.97479 3.02916
f 51/127/25 45/126/25 46/128/25

f 51/127/25 46/128/25 48/122/25

f 47/123/25 48/122/25 46/128/25

vt 3.17677 4.6808
vn 0 0.766044 0.642788
v -3.36229 6.12423 -1.9832
vt -3.36229 5.4558
vt -3.36229 4.6808
f 48/129/26 52/130/26 51/131/26

v 3.17677 6.12423 -1.9832
vt 3.17677 5.4558
f 52/130/26 48/129/26 53/132/26

vt 4.25892 2.20645
vn 1 -6.66805e-016 5.62517e-016
vt 1.9832 6.12423
vt 1.38951 5.62607
f 49/133/27 53/134/27 48/135/27

v 3.17677 2.70461 -4.8526
vt 4.8526 2.70461
f 53/134/27 49/133/27 54/136/27

vt 3.36229 4.6808
vn 1.34893e-018 -0.766044 -0.642788
vt -3.17677 5.4558
vt -3.17677 4.6808
f 50/137/28 54/138/28 49/139/28

v -3.36229 2.70461 -4.8526
vt 3.36229 5.4558
f 54/138/28 50/137/28 55/140/28

vt -4.25892 2.20645
vn -1 -5.84242e-016 1.00581e-015
vt -1.9832 6.12423
vt -4.8526 2.70461
f 50/141/29 52/142/29 55/143/29

vt -1.38951 5.62607
f 52/142/29 50/141/29 51/144/29

v -2.58729 3.2983 -4.35444
vt 2.58729 -0.272341
vn -5.67099e-018 0.642788 -0.766044
vt 3.36229 -1.04734
vt 3.36229 3.41666
f 56/145/30 55/146/30 52/147/30

vt -3.17677 -1.04734
f 55/146/30 56/145/30 54/148/30

v 2.40177 3.2983 -4.35444
vt -2.40177 -0.272341
f 57/149/30 54/148/30 56/145/30

vt -3.17677 3.41666
f 54/148/30 57/149/30 53/150/30

v 2.40177 5.53055 -2.48136
vt -2.40177 2.64166
f 53/150/30 57/149/30 58/151/30

usemtl _Glass_Gold_Tint_2
vn 2.51357e-016 0.642788 -0.766044
v -2.58729 5.53055 -2.48136
vt 2.58729 2.64166
f 57/149/31 59/152/31 58/151/31

f 59/152/31 57/149/31 56/145/31

usemtl _DarkGray_
f 56/145/30 52/147/30 59/152/30

f 53/150/30 59/152/30 52/147/30

f 53/150/30 58/151/30 59/152/30

vt 1.44066 2.24948
f 26/69/15 27/68/15 38/153/15

v 1.3666 0 -1.88096
vt 1.3666 1.88096
f 36/82/3 28/74/3 60/154/3

f 28/74/3 29/73/3 60/154/3

v 2.21121 0 -0.718465
vt 2.21121 0.718465
f 60/154/3 29/73/3 61/155/3

v 2.21121 0 0.718465
vt 2.21121 -0.718465
f 61/155/3 29/73/3 62/156/3

g Mesh3 Model

v 0.391612 1.26529 0.387652
vt -0.387652 1.26529
vn 1 0 -0
v 0.391612 1.83471 0.387652
vt -0.387652 1.83471
v 0.391612 1.55 0.480159
vt -0.480159 1.55
f 63/157/32 64/158/32 65/159/32

v 0.391612 1.26212 0.383284
vt -0.383284 1.26212
f 64/158/32 63/157/32 66/160/32

v -0.383388 1.26529 0.387652
vt -0.383388 1.05734
vn 0 -0.587785 0.809017
vt 0.391612 1.05194
vn 0 -0.809017 0.587785
vt 0.391612 1.05734
f 67/161/33 66/162/34 63/163/33

v -0.383388 1.26212 0.383284
vt -0.383388 1.05194
f 66/162/34 67/161/33 68/164/34

vt 0.387652 1.26529
v -0.383388 2.01067 0.145465
vt 0.145465 2.01067
vt 0.383284 1.26212
f 67/165/18 69/166/18 68/167/18

v -0.383388 1.83471 0.387652
vt 0.387652 1.83471
f 67/165/18 70/168/18 69/166/18

v -0.383388 1.55 0.480159
vt 0.480159 1.55
f 70/168/18 67/165/18 71/169/18

vt -0.383388 1.32315
vt 0.391612 1.62252
vn 0 4.37759e-016 1
vt -0.383388 1.62252
f 67/170/33 65/171/35 71/172/35

vt 0.391612 1.32315
f 65/171/35 67/170/33 63/173/33

vt 0.391612 1.62512
vn 0 0.587785 0.809017
vt -0.383388 1.32576
vt 0.391612 1.32576
f 64/174/36 71/175/35 65/176/35

vt -0.383388 1.62512
f 71/175/35 64/174/36 70/177/36

vt 0.391612 0.764797
vt -0.383388 1.06416
vn 0 0.951057 0.309017
vt -0.383388 0.764797
f 64/178/36 69/179/37 70/180/36

v 0.391612 2.01067 0.145465
vt 0.391612 1.06416
f 69/179/37 64/178/36 72/181/37

vt -0.145465 2.01067
f 64/158/32 66/160/32 72/182/32

v 0.391612 1.08933 0.145465
vt -0.145465 1.08933
f 72/182/32 66/160/32 73/183/32

vt 0.391612 0.757977
vn 0 -0.951057 0.309017
f 68/164/34 73/184/38 66/162/34

v -0.383388 1.08933 0.145465
vt -0.383388 0.757977
f 73/184/38 68/164/34 74/185/38

vt 0.145465 1.08933
f 68/167/18 69/166/18 74/186/18

v -0.383388 2.01067 -0.153896
vt -0.153896 2.01067
f 74/186/18 69/166/18 75/187/18

vt 0.391612 -0.145465
vt -0.383388 0.153896
vn 0 0.951057 -0.309017
vt -0.383388 -0.145465
f 72/188/37 75/189/39 69/190/37

v 0.391612 2.01067 -0.153896
vt 0.391612 0.153896
f 75/189/39 72/188/37 76/191/39

v 0.391612 1.08933 -0.153896
vt 0.153896 1.08933
vt 0.153896 2.01067
f 72/182/32 77/192/32 76/193/32

f 72/182/32 73/183/32 77/192/32

vt 0.383388 -0.145465
vt -0.391612 0.153896
vn 0 -0.951057 -0.309017
vt -0.391612 -0.145465
f 74/194/38 77/195/40 73/196/38

v -0.383388 1.08933 -0.153896
vt 0.383388 0.153896
f 77/195/40 74/194/38 78/197/40

vt -0.153896 1.08933
f 74/186/18 75/187/18 78/198/18

v -0.383388 1.83471 -0.396083
vt -0.396083 1.83471
f 78/198/18 75/187/18 79/199/18

vt -0.391612 1.05734
vt 0.383388 0.757977
vn 0 0.587785 -0.809017
vt 0.383388 1.05734
f 76/200/39 79/201/41 75/202/39

v 0.391612 1.83471 -0.396083
vt -0.391612 0.757977
f 79/201/41 76/200/39 80/203/41

v 0.391612 1.26212 -0.391716
vt 0.391716 1.26212
vt 0.396083 1.83471
f 76/193/32 81/204/32 80/205/32

f 76/193/32 77/192/32 81/204/32

vt 0.383388 0.764797
vt -0.391612 1.05876
vn 0 -0.809017 -0.587785
vt -0.391612 0.764797
f 78/206/40 81/207/42 77/208/40

v -0.383388 1.26212 -0.391716
vt 0.383388 1.05876
f 81/207/42 78/206/40 82/209/42

vt -0.391716 1.26212
f 78/198/18 79/199/18 82/210/18

v -0.383388 1.26529 -0.396083
vt -0.396083 1.26529
f 82/210/18 79/199/18 83/211/18

v -0.383388 1.55 -0.488591
vt -0.488591 1.55
f 83/211/18 79/199/18 84/212/18

vt 0.383388 1.62252
v 0.391612 1.55 -0.488591
vt -0.391612 1.32315
vn 0 4.08575e-016 -1
vt 0.383388 1.32315
f 79/213/41 85/214/43 84/215/43

vt -0.391612 1.62252
f 85/214/43 79/213/41 80/216/41

v 0.391612 1.26529 -0.396083
vt 0.396083 1.26529
vt 0.488591 1.55
f 80/205/32 86/217/32 85/218/32

f 80/205/32 81/204/32 86/217/32

vt -0.391612 1.06416
vn 0 -0.587785 -0.809017
f 82/209/42 86/219/44 81/207/42

vt 0.383388 1.06416
f 86/219/44 82/209/42 83/220/44

vt 0.383388 1.62512
vt -0.391612 1.32576
vt 0.383388 1.32576
f 84/221/43 86/222/44 83/223/44

vt -0.391612 1.62512
f 86/222/44 84/221/43 85/224/43

