# Exported from Wings 3D 1.5.4
mtllib coin.mtl
o Cylinder1
#120 vertices, 236 faces
v 1.00000000 0.10000000 0.0000000e+0
v 0.99452190 0.10000000 0.10452846
v 0.97814760 0.10000000 0.20791169
v 0.95105652 0.10000000 0.30901699
v 0.91354546 0.10000000 0.40673664
v 0.86602540 0.10000000 0.50000000
v 0.80901699 0.10000000 0.58778525
v 0.74314483 0.10000000 0.66913061
v 0.66913061 0.10000000 0.74314483
v 0.58778525 0.10000000 0.80901699
v 0.50000000 0.10000000 0.86602540
v 0.40673664 0.10000000 0.91354546
v 0.30901699 0.10000000 0.95105652
v 0.20791169 0.10000000 0.97814760
v 0.10452846 0.10000000 0.99452190
v 6.1232340e-17 0.10000000 1.00000000
v -0.10452846 0.10000000 0.99452190
v -0.20791169 0.10000000 0.97814760
v -0.30901699 0.10000000 0.95105652
v -0.40673664 0.10000000 0.91354546
v -0.50000000 0.10000000 0.86602540
v -0.58778525 0.10000000 0.80901699
v -0.66913061 0.10000000 0.74314483
v -0.74314483 0.10000000 0.66913061
v -0.80901699 0.10000000 0.58778525
v -0.86602540 0.10000000 0.50000000
v -0.91354546 0.10000000 0.40673664
v -0.95105652 0.10000000 0.30901699
v -0.97814760 0.10000000 0.20791169
v -0.99452190 0.10000000 0.10452846
v -1.00000000 0.10000000 1.2246468e-16
v -0.99452190 0.10000000 -0.10452846
v -0.97814760 0.10000000 -0.20791169
v -0.95105652 0.10000000 -0.30901699
v -0.91354546 0.10000000 -0.40673664
v -0.86602540 0.10000000 -0.50000000
v -0.80901699 0.10000000 -0.58778525
v -0.74314483 0.10000000 -0.66913061
v -0.66913061 0.10000000 -0.74314483
v -0.58778525 0.10000000 -0.80901699
v -0.50000000 0.10000000 -0.86602540
v -0.40673664 0.10000000 -0.91354546
v -0.30901699 0.10000000 -0.95105652
v -0.20791169 0.10000000 -0.97814760
v -0.10452846 0.10000000 -0.99452190
v -1.8369702e-16 0.10000000 -1.00000000
v 0.10452846 0.10000000 -0.99452190
v 0.20791169 0.10000000 -0.97814760
v 0.30901699 0.10000000 -0.95105652
v 0.40673664 0.10000000 -0.91354546
v 0.50000000 0.10000000 -0.86602540
v 0.58778525 0.10000000 -0.80901699
v 0.66913061 0.10000000 -0.74314483
v 0.74314483 0.10000000 -0.66913061
v 0.80901699 0.10000000 -0.58778525
v 0.86602540 0.10000000 -0.50000000
v 0.91354546 0.10000000 -0.40673664
v 0.95105652 0.10000000 -0.30901699
v 0.97814760 0.10000000 -0.20791169
v 0.99452190 0.10000000 -0.10452846
v 1.00000000 -0.10000000 0.0000000e+0
v 0.99452190 -0.10000000 0.10452846
v 0.97814760 -0.10000000 0.20791169
v 0.95105652 -0.10000000 0.30901699
v 0.91354546 -0.10000000 0.40673664
v 0.86602540 -0.10000000 0.50000000
v 0.80901699 -0.10000000 0.58778525
v 0.74314483 -0.10000000 0.66913061
v 0.66913061 -0.10000000 0.74314483
v 0.58778525 -0.10000000 0.80901699
v 0.50000000 -0.10000000 0.86602540
v 0.40673664 -0.10000000 0.91354546
v 0.30901699 -0.10000000 0.95105652
v 0.20791169 -0.10000000 0.97814760
v 0.10452846 -0.10000000 0.99452190
v 6.1232340e-17 -0.10000000 1.00000000
v -0.10452846 -0.10000000 0.99452190
v -0.20791169 -0.10000000 0.97814760
v -0.30901699 -0.10000000 0.95105652
v -0.40673664 -0.10000000 0.91354546
v -0.50000000 -0.10000000 0.86602540
v -0.58778525 -0.10000000 0.80901699
v -0.66913061 -0.10000000 0.74314483
v -0.74314483 -0.10000000 0.66913061
v -0.80901699 -0.10000000 0.58778525
v -0.86602540 -0.10000000 0.50000000
v -0.91354546 -0.10000000 0.40673664
v -0.95105652 -0.10000000 0.30901699
v -0.97814760 -0.10000000 0.20791169
v -0.99452190 -0.10000000 0.10452846
v -1.00000000 -0.10000000 1.2246468e-16
v -0.99452190 -0.10000000 -0.10452846
v -0.97814760 -0.10000000 -0.20791169
v -0.95105652 -0.10000000 -0.30901699
v -0.91354546 -0.10000000 -0.40673664
v -0.86602540 -0.10000000 -0.50000000
v -0.80901699 -0.10000000 -0.58778525
v -0.74314483 -0.10000000 -0.66913061
v -0.66913061 -0.10000000 -0.74314483
v -0.58778525 -0.10000000 -0.80901699
v -0.50000000 -0.10000000 -0.86602540
v -0.40673664 -0.10000000 -0.91354546
v -0.30901699 -0.10000000 -0.95105652
v -0.20791169 -0.10000000 -0.97814760
v -0.10452846 -0.10000000 -0.99452190
v -1.8369702e-16 -0.10000000 -1.00000000
v 0.10452846 -0.10000000 -0.99452190
v 0.20791169 -0.10000000 -0.97814760
v 0.30901699 -0.10000000 -0.95105652
v 0.40673664 -0.10000000 -0.91354546
v 0.50000000 -0.10000000 -0.86602540
v 0.58778525 -0.10000000 -0.80901699
v 0.66913061 -0.10000000 -0.74314483
v 0.74314483 -0.10000000 -0.66913061
v 0.80901699 -0.10000000 -0.58778525
v 0.86602540 -0.10000000 -0.50000000
v 0.91354546 -0.10000000 -0.40673664
v 0.95105652 -0.10000000 -0.30901699
v 0.97814760 -0.10000000 -0.20791169
v 0.99452190 -0.10000000 -0.10452846
vn 0.89418163 0.44770438 1.8950096e-16
vn 0.88928321 0.44770438 9.3467432e-2
vn 0.54206355 0.83240114 0.11521916
vn 0.76046934 0.60052659 0.24709147
vn 0.50626275 0.83240114 0.22540270
vn 0.69247806 0.60052659 0.39980239
vn 0.44833584 0.83240114 0.32573505
vn 0.59422216 0.60052659 0.53504004
vn 0.37081450 0.83240114 0.41183122
vn 0.46999590 0.60052659 0.64689386
vn 0.27708679 0.83240114 0.47992839
vn 0.32522857 0.60052659 0.73047532
vn 0.17124905 0.83240114 0.52705039
vn 0.16624718 0.60052659 0.78213150
vn 5.7926912e-2 0.83240114 0.55113775
vn 4.7781489e-16 0.60052659 0.79960479
vn -5.7926912e-2 0.83240114 0.55113775
vn -0.16624718 0.60052659 0.78213150
vn -0.17124905 0.83240114 0.52705039
vn -0.32522857 0.60052659 0.73047532
vn -0.27708679 0.83240114 0.47992839
vn -0.46999590 0.60052659 0.64689386
vn -0.37081450 0.83240114 0.41183122
vn -0.59422216 0.60052659 0.53504004
vn -0.44833584 0.83240114 0.32573505
vn -0.69247806 0.60052659 0.39980239
vn -0.50626275 0.83240114 0.22540270
vn -0.76046934 0.60052659 0.24709147
vn -0.54206355 0.83240114 0.11521916
vn -0.79522447 0.60052659 8.3581460e-2
vn -0.89418163 0.44770438 3.6657564e-16
vn -0.88928321 0.44770438 -9.3467432e-2
vn -0.54206355 0.83240114 -0.11521916
vn -0.76046934 0.60052659 -0.24709147
vn -0.50626275 0.83240114 -0.22540270
vn -0.69247806 0.60052659 -0.39980239
vn -0.44833584 0.83240114 -0.32573505
vn -0.59422216 0.60052659 -0.53504004
vn -0.37081450 0.83240114 -0.41183122
vn -0.46999590 0.60052659 -0.64689386
vn -0.27708679 0.83240114 -0.47992839
vn -0.32522857 0.60052659 -0.73047532
vn -0.17124905 0.83240114 -0.52705039
vn -0.16624718 0.60052659 -0.78213150
vn -5.7926912e-2 0.83240114 -0.55113775
vn -3.5280518e-16 0.60052659 -0.79960479
vn 5.7926912e-2 0.83240114 -0.55113775
vn 0.16624718 0.60052659 -0.78213150
vn 0.17124905 0.83240114 -0.52705039
vn 0.32522857 0.60052659 -0.73047532
vn 0.27708679 0.83240114 -0.47992839
vn 0.46999590 0.60052659 -0.64689386
vn 0.37081450 0.83240114 -0.41183122
vn 0.59422216 0.60052659 -0.53504004
vn 0.44833584 0.83240114 -0.32573505
vn 0.69247806 0.60052659 -0.39980239
vn 0.50626275 0.83240114 -0.22540270
vn 0.76046934 0.60052659 -0.24709147
vn 0.54206355 0.83240114 -0.11521916
vn 0.79522447 0.60052659 -8.3581460e-2
vn 0.97006414 -0.24284885 2.0558249e-16
vn 0.55113775 -0.83240114 5.7926912e-2
vn 0.78213150 -0.60052659 0.16624718
vn 0.52705039 -0.83240114 0.17124905
vn 0.73047532 -0.60052659 0.32522857
vn 0.47992839 -0.83240114 0.27708679
vn 0.64689386 -0.60052659 0.46999590
vn 0.41183122 -0.83240114 0.37081450
vn 0.53504004 -0.60052659 0.59422216
vn 0.32573505 -0.83240114 0.44833584
vn 0.39980239 -0.60052659 0.69247806
vn 0.22540270 -0.83240114 0.50626275
vn 0.24709147 -0.60052659 0.76046934
vn 0.11521916 -0.83240114 0.54206355
vn 8.3581460e-2 -0.60052659 0.79522447
vn 6.9888912e-16 -0.83240114 0.55417357
vn -8.3581460e-2 -0.60052659 0.79522447
vn -0.11521916 -0.83240114 0.54206355
vn -0.24709147 -0.60052659 0.76046934
vn -0.22540270 -0.83240114 0.50626275
vn -0.39980239 -0.60052659 0.69247806
vn -0.32573505 -0.83240114 0.44833584
vn -0.53504004 -0.60052659 0.59422216
vn -0.41183122 -0.83240114 0.37081450
vn -0.64689386 -0.60052659 0.46999590
vn -0.47992839 -0.83240114 0.27708679
vn -0.73047532 -0.60052659 0.32522857
vn -0.52705039 -0.83240114 0.17124905
vn -0.78213150 -0.60052659 0.16624718
vn -0.70275080 -0.70759148 7.3862086e-2
vn -0.97006414 -0.24284885 4.0442458e-16
vn -0.55113775 -0.83240114 -5.7926912e-2
vn -0.78213150 -0.60052659 -0.16624718
vn -0.52705039 -0.83240114 -0.17124905
vn -0.73047532 -0.60052659 -0.32522857
vn -0.47992839 -0.83240114 -0.27708679
vn -0.64689386 -0.60052659 -0.46999590
vn -0.41183122 -0.83240114 -0.37081450
vn -0.53504004 -0.60052659 -0.59422216
vn -0.32573505 -0.83240114 -0.44833584
vn -0.39980239 -0.60052659 -0.69247806
vn -0.22540270 -0.83240114 -0.50626275
vn -0.24709147 -0.60052659 -0.76046934
vn -0.11521916 -0.83240114 -0.54206355
vn -8.3581460e-2 -0.60052659 -0.79522447
vn -6.1224998e-16 -0.83240114 -0.55417357
vn 8.3581460e-2 -0.60052659 -0.79522447
vn 0.11521916 -0.83240114 -0.54206355
vn 0.24709147 -0.60052659 -0.76046934
vn 0.22540270 -0.83240114 -0.50626275
vn 0.39980239 -0.60052659 -0.69247806
vn 0.32573505 -0.83240114 -0.44833584
vn 0.53504004 -0.60052659 -0.59422216
vn 0.41183122 -0.83240114 -0.37081450
vn 0.64689386 -0.60052659 -0.46999590
vn 0.47992839 -0.83240114 -0.27708679
vn 0.73047532 -0.60052659 -0.32522857
vn 0.52705039 -0.83240114 -0.17124905
vn 0.78213150 -0.60052659 -0.16624718
vn 0.70275080 -0.70759148 -7.3862086e-2
g Cylinder1_default
usemtl default
s 1
f 1//1 60//60 2//2
f 1//1 61//61 60//60
f 2//2 60//60 3//3
f 2//2 61//61 1//1
f 2//2 63//63 62//62
f 3//3 59//59 4//4
f 3//3 63//63 2//2
f 4//4 58//58 5//5
f 4//4 63//63 3//3
f 4//4 65//65 64//64
f 5//5 57//57 6//6
f 5//5 65//65 4//4
f 6//6 56//56 7//7
f 6//6 65//65 5//5
f 6//6 67//67 66//66
f 7//7 55//55 8//8
f 7//7 67//67 6//6
f 8//8 54//54 9//9
f 8//8 67//67 7//7
f 8//8 69//69 68//68
f 9//9 53//53 10//10
f 9//9 69//69 8//8
f 10//10 52//52 11//11
f 10//10 69//69 9//9
f 10//10 71//71 70//70
f 11//11 51//51 12//12
f 11//11 71//71 10//10
f 12//12 50//50 13//13
f 12//12 71//71 11//11
f 12//12 73//73 72//72
f 13//13 49//49 14//14
f 13//13 73//73 12//12
f 14//14 48//48 15//15
f 14//14 73//73 13//13
f 14//14 75//75 74//74
f 15//15 47//47 16//16
f 15//15 75//75 14//14
f 16//16 46//46 17//17
f 16//16 75//75 15//15
f 16//16 77//77 76//76
f 17//17 45//45 18//18
f 17//17 77//77 16//16
f 18//18 44//44 19//19
f 18//18 77//77 17//17
f 18//18 79//79 78//78
f 19//19 43//43 20//20
f 19//19 79//79 18//18
f 20//20 42//42 21//21
f 20//20 79//79 19//19
f 20//20 81//81 80//80
f 21//21 41//41 22//22
f 21//21 81//81 20//20
f 22//22 40//40 23//23
f 22//22 81//81 21//21
f 22//22 83//83 82//82
f 23//23 39//39 24//24
f 23//23 83//83 22//22
f 24//24 38//38 25//25
f 24//24 83//83 23//23
f 24//24 85//85 84//84
f 25//25 37//37 26//26
f 25//25 85//85 24//24
f 26//26 36//36 27//27
f 26//26 85//85 25//25
f 26//26 87//87 86//86
f 27//27 35//35 28//28
f 27//27 87//87 26//26
f 28//28 34//34 29//29
f 28//28 87//87 27//27
f 28//28 89//89 88//88
f 29//29 33//33 30//30
f 29//29 89//89 28//28
f 30//30 32//32 31//31
f 30//30 89//89 29//29
f 30//30 91//91 90//90
f 31//31 91//91 30//30
f 32//32 30//30 33//33
f 32//32 91//91 31//31
f 32//32 93//93 92//92
f 33//33 29//29 34//34
f 33//33 93//93 32//32
f 34//34 28//28 35//35
f 34//34 93//93 33//33
f 34//34 95//95 94//94
f 35//35 27//27 36//36
f 35//35 95//95 34//34
f 36//36 26//26 37//37
f 36//36 95//95 35//35
f 36//36 97//97 96//96
f 37//37 25//25 38//38
f 37//37 97//97 36//36
f 38//38 24//24 39//39
f 38//38 97//97 37//37
f 38//38 99//99 98//98
f 39//39 23//23 40//40
f 39//39 99//99 38//38
f 40//40 22//22 41//41
f 40//40 99//99 39//39
f 40//40 101//101 100//100
f 41//41 21//21 42//42
f 41//41 101//101 40//40
f 42//42 20//20 43//43
f 42//42 101//101 41//41
f 42//42 103//103 102//102
f 43//43 19//19 44//44
f 43//43 103//103 42//42
f 44//44 18//18 45//45
f 44//44 103//103 43//43
f 44//44 105//105 104//104
f 45//45 17//17 46//46
f 45//45 105//105 44//44
f 46//46 16//16 47//47
f 46//46 105//105 45//45
f 46//46 107//107 106//106
f 47//47 15//15 48//48
f 47//47 107//107 46//46
f 48//48 14//14 49//49
f 48//48 107//107 47//47
f 48//48 109//109 108//108
f 49//49 13//13 50//50
f 49//49 109//109 48//48
f 50//50 12//12 51//51
f 50//50 109//109 49//49
f 50//50 111//111 110//110
f 51//51 11//11 52//52
f 51//51 111//111 50//50
f 52//52 10//10 53//53
f 52//52 111//111 51//51
f 52//52 113//113 112//112
f 53//53 9//9 54//54
f 53//53 113//113 52//52
f 54//54 8//8 55//55
f 54//54 113//113 53//53
f 54//54 115//115 114//114
f 55//55 7//7 56//56
f 55//55 115//115 54//54
f 56//56 6//6 57//57
f 56//56 115//115 55//55
f 56//56 117//117 116//116
f 57//57 5//5 58//58
f 57//57 117//117 56//56
f 58//58 4//4 59//59
f 58//58 117//117 57//57
f 58//58 119//119 118//118
f 59//59 3//3 60//60
f 59//59 119//119 58//58
f 60//60 61//61 120//120
f 60//60 119//119 59//59
f 62//62 61//61 2//2
f 62//62 120//120 61//61
f 63//63 119//119 62//62
f 64//64 63//63 4//4
f 64//64 118//118 63//63
f 65//65 117//117 64//64
f 66//66 65//65 6//6
f 66//66 116//116 65//65
f 67//67 115//115 66//66
f 68//68 67//67 8//8
f 68//68 114//114 67//67
f 69//69 113//113 68//68
f 70//70 69//69 10//10
f 70//70 112//112 69//69
f 71//71 111//111 70//70
f 72//72 71//71 12//12
f 72//72 110//110 71//71
f 73//73 109//109 72//72
f 74//74 73//73 14//14
f 74//74 108//108 73//73
f 75//75 107//107 74//74
f 76//76 75//75 16//16
f 76//76 106//106 75//75
f 77//77 105//105 76//76
f 78//78 77//77 18//18
f 78//78 104//104 77//77
f 79//79 103//103 78//78
f 80//80 79//79 20//20
f 80//80 102//102 79//79
f 81//81 101//101 80//80
f 82//82 81//81 22//22
f 82//82 100//100 81//81
f 83//83 99//99 82//82
f 84//84 83//83 24//24
f 84//84 98//98 83//83
f 85//85 97//97 84//84
f 86//86 85//85 26//26
f 86//86 96//96 85//85
f 87//87 95//95 86//86
f 88//88 87//87 28//28
f 88//88 94//94 87//87
f 89//89 93//93 88//88
f 90//90 89//89 30//30
f 90//90 92//92 89//89
f 91//91 92//92 90//90
f 92//92 91//91 32//32
f 93//93 89//89 92//92
f 94//94 88//88 93//93
f 94//94 93//93 34//34
f 95//95 87//87 94//94
f 96//96 86//86 95//95
f 96//96 95//95 36//36
f 97//97 85//85 96//96
f 98//98 84//84 97//97
f 98//98 97//97 38//38
f 99//99 83//83 98//98
f 100//100 82//82 99//99
f 100//100 99//99 40//40
f 101//101 81//81 100//100
f 102//102 80//80 101//101
f 102//102 101//101 42//42
f 103//103 79//79 102//102
f 104//104 78//78 103//103
f 104//104 103//103 44//44
f 105//105 77//77 104//104
f 106//106 76//76 105//105
f 106//106 105//105 46//46
f 107//107 75//75 106//106
f 108//108 74//74 107//107
f 108//108 107//107 48//48
f 109//109 73//73 108//108
f 110//110 72//72 109//109
f 110//110 109//109 50//50
f 111//111 71//71 110//110
f 112//112 70//70 111//111
f 112//112 111//111 52//52
f 113//113 69//69 112//112
f 114//114 68//68 113//113
f 114//114 113//113 54//54
f 115//115 67//67 114//114
f 116//116 66//66 115//115
f 116//116 115//115 56//56
f 117//117 65//65 116//116
f 118//118 64//64 117//117
f 118//118 117//117 58//58
f 119//119 63//63 118//118
f 120//120 62//62 119//119
f 120//120 119//119 60//60
