# Exported from Wings 3D 1.5.4
mtllib laternLamp.mtl
o Cylinder6
#40 vertices, 76 faces
v -0.28486674 -0.29109954 -4.9404925e-18
v -0.27077184 -0.29094701 8.8996894e-2
v -0.22986685 -0.29050436 0.16928215
v -0.16615584 -0.28981491 0.23299689
v -8.5875285e-2 -0.28894616 0.27390428
v 3.1163991e-3 -0.28798314 0.28800000
v 9.2108083e-2 -0.28702012 0.27390428
v 0.17238864 -0.28615137 0.23299689
v 0.23609965 -0.28546192 0.16928215
v 0.27700464 -0.28501927 8.8996894e-2
v 0.29109954 -0.28486674 3.0329335e-17
v 0.27700464 -0.28501927 -8.8996894e-2
v 0.23609965 -0.28546192 -0.16928215
v 0.17238864 -0.28615137 -0.23299689
v 9.2108083e-2 -0.28702012 -0.27390428
v 3.1163991e-3 -0.28798314 -0.28800000
v -8.5875285e-2 -0.28894616 -0.27390428
v -0.16615584 -0.28981491 -0.23299689
v -0.22986685 -0.29050436 -0.16928215
v -0.27077184 -0.29094701 -8.8996894e-2
v -0.14710797 0.28642494 -4.9404925e-18
v -0.14006052 0.28650120 4.4498447e-2
v -0.11960803 0.28672253 8.4641076e-2
v -8.7752520e-2 0.28706725 0.11649845
v -4.7612241e-2 0.28750163 0.13695214
v -3.1163991e-3 0.28798314 0.14400000
v 4.1379443e-2 0.28846465 0.13695214
v 8.1519722e-2 0.28889903 0.11649845
v 0.11337523 0.28924375 8.4641076e-2
v 0.13382772 0.28946507 4.4498447e-2
v 0.14087517 0.28954134 1.2694421e-17
v 0.13382772 0.28946507 -4.4498447e-2
v 0.11337523 0.28924375 -8.4641076e-2
v 8.1519722e-2 0.28889903 -0.11649845
v 4.1379443e-2 0.28846465 -0.13695214
v -3.1163991e-3 0.28798314 -0.14400000
v -4.7612241e-2 0.28750163 -0.13695214
v -8.7752520e-2 0.28706725 -0.11649845
v -0.11960803 0.28672253 -8.4641076e-2
v -0.14006052 0.28650120 -4.4498447e-2
vn -0.59686753 -0.80233980 3.5930266e-16
vn -0.83444529 -0.47883581 0.27279538
vn -0.48123131 -0.80108844 0.35591253
vn -0.51377387 -0.47536568 0.71418757
vn -0.17849175 -0.79781236 0.57587858
vn 1.1597569e-4 -1.0717191e-2 0.99994256
vn 0.24884981 -0.61862767 0.74523391
vn 0.52394065 -0.46413609 0.71418757
vn 0.49845448 -0.79048681 0.35591253
vn 0.84461208 -0.46066596 0.27279538
vn 0.61409071 -0.78923546 -5.6086268e-16
vn 0.84461208 -0.46066596 -0.27279538
vn 0.49845448 -0.79048681 -0.35591253
vn 0.52394065 -0.46413609 -0.71418757
vn 0.19571492 -0.79376289 -0.57587858
vn 1.1597569e-4 -1.0717191e-2 -0.99994256
vn -0.23540419 -0.62386800 -0.74523391
vn -0.51377387 -0.47536568 -0.71418757
vn -0.48123131 -0.80108844 -0.35591253
vn -0.83444529 -0.47883581 -0.27279538
vn -0.89544590 0.44517036 7.7334696e-17
vn -0.46853204 0.87076264 0.14916486
vn -0.57067769 0.71207209 0.40899917
vn -0.29318850 0.87266011 0.39051867
vn -0.22278258 0.71583682 0.66177456
vn -9.4766836e-3 0.87573029 0.48270763
vn 0.20723942 0.72049029 0.66177456
vn 0.27423513 0.87880047 0.39051867
vn 0.55513452 0.72425502 0.40899917
vn 0.57327791 0.79725041 0.18906143
vn 0.88560254 0.46444391 2.5778232e-17
vn 0.44957867 0.88069794 -0.14916486
vn 0.55513452 0.72425502 -0.40899917
vn 0.27423513 0.87880047 -0.39051867
vn 0.20723942 0.72049029 -0.66177456
vn -9.4766836e-3 0.87573029 -0.48270763
vn -0.22278258 0.71583682 -0.66177456
vn -0.29318850 0.87266011 -0.39051867
vn -0.57067769 0.71207209 -0.40899917
vn -0.59039647 0.78465775 -0.18906143
g Cylinder6_default
usemtl default
s 1
f 1//1 11//11 2//2
f 1//1 21//21 20//20
f 2//2 10//10 3//3
f 2//2 21//21 1//1
f 2//2 23//23 22//22
f 3//3 9//9 4//4
f 3//3 23//23 2//2
f 4//4 8//8 5//5
f 4//4 23//23 3//3
f 4//4 25//25 24//24
f 5//5 7//7 6//6
f 5//5 25//25 4//4
f 6//6 25//25 5//5
f 6//6 27//27 26//26
f 7//7 5//5 8//8
f 7//7 27//27 6//6
f 8//8 4//4 9//9
f 8//8 27//27 7//7
f 8//8 29//29 28//28
f 9//9 3//3 10//10
f 9//9 29//29 8//8
f 10//10 2//2 11//11
f 10//10 29//29 9//9
f 10//10 31//31 30//30
f 11//11 1//1 12//12
f 11//11 31//31 10//10
f 12//12 20//20 13//13
f 12//12 31//31 11//11
f 12//12 33//33 32//32
f 13//13 19//19 14//14
f 13//13 33//33 12//12
f 14//14 18//18 15//15
f 14//14 33//33 13//13
f 14//14 35//35 34//34
f 15//15 17//17 16//16
f 15//15 35//35 14//14
f 16//16 35//35 15//15
f 16//16 37//37 36//36
f 17//17 15//15 18//18
f 17//17 37//37 16//16
f 18//18 14//14 19//19
f 18//18 37//37 17//17
f 18//18 39//39 38//38
f 19//19 13//13 20//20
f 19//19 39//39 18//18
f 20//20 12//12 1//1
f 20//20 21//21 40//40
f 20//20 39//39 19//19
f 22//22 21//21 2//2
f 22//22 40//40 21//21
f 23//23 39//39 22//22
f 24//24 23//23 4//4
f 24//24 38//38 23//23
f 25//25 37//37 24//24
f 26//26 25//25 6//6
f 26//26 36//36 25//25
f 27//27 35//35 26//26
f 28//28 27//27 8//8
f 28//28 34//34 27//27
f 29//29 33//33 28//28
f 30//30 29//29 10//10
f 30//30 32//32 29//29
f 31//31 32//32 30//30
f 32//32 31//31 12//12
f 33//33 29//29 32//32
f 34//34 28//28 33//33
f 34//34 33//33 14//14
f 35//35 27//27 34//34
f 36//36 26//26 35//35
f 36//36 35//35 16//16
f 37//37 25//25 36//36
f 38//38 24//24 37//37
f 38//38 37//37 18//18
f 39//39 23//23 38//38
f 40//40 22//22 39//39
f 40//40 39//39 20//20
