# Exported from Wings 3D 1.5.4
mtllib watersurface.mtl
o Cylinder8
#16 vertices, 28 faces
v 0.75000000 0.10000000 0.0000000e+0
v 0.53033009 0.10000000 0.53033009
v 4.5924255e-17 0.10000000 0.75000000
v -0.53033009 0.10000000 0.53033009
v -0.75000000 0.10000000 9.1848510e-17
v -0.53033009 0.10000000 -0.53033009
v -1.3777276e-16 0.10000000 -0.75000000
v 0.53033009 0.10000000 -0.53033009
v 0.75000000 -0.10000000 0.0000000e+0
v 0.53033009 -0.10000000 0.53033009
v 4.5924255e-17 -0.10000000 0.75000000
v -0.53033009 -0.10000000 0.53033009
v -0.75000000 -0.10000000 9.1848510e-17
v -0.53033009 -0.10000000 -0.53033009
v -1.3777276e-16 -0.10000000 -0.75000000
v 0.53033009 -0.10000000 -0.53033009
vn 0.87946522 0.47596315 -1.0568505e-16
vn 0.62187582 0.47596315 0.62187582
vn 9.4530483e-17 0.85145490 0.52442784
vn -0.54898507 0.63026247 0.54898507
vn -0.87946522 0.47596315 1.0568505e-16
vn -0.62187582 0.47596315 -0.62187582
vn -1.1028556e-16 0.85145490 -0.52442784
vn 0.54898507 0.63026247 -0.54898507
vn 0.96528366 -0.26120387 -1.3049755e-16
vn 0.37082648 -0.85145490 0.37082648
vn 0.0000000e+0 -0.63026247 0.77638213
vn -0.47984149 -0.73450956 0.47984149
vn -0.96528366 -0.26120387 1.3049755e-16
vn -0.37082648 -0.85145490 -0.37082648
vn -2.3324397e-17 -0.63026247 -0.77638213
vn 0.47984149 -0.73450956 -0.47984149
g Cylinder8_default
usemtl default
s 1
f 1//1 8//8 2//2
f 1//1 9//9 8//8
f 2//2 8//8 3//3
f 2//2 9//9 1//1
f 2//2 11//11 10//10
f 3//3 7//7 4//4
f 3//3 11//11 2//2
f 4//4 6//6 5//5
f 4//4 11//11 3//3
f 4//4 13//13 12//12
f 5//5 13//13 4//4
f 6//6 4//4 7//7
f 6//6 13//13 5//5
f 6//6 15//15 14//14
f 7//7 3//3 8//8
f 7//7 15//15 6//6
f 8//8 9//9 16//16
f 8//8 15//15 7//7
f 10//10 9//9 2//2
f 10//10 16//16 9//9
f 11//11 15//15 10//10
f 12//12 11//11 4//4
f 12//12 14//14 11//11
f 13//13 14//14 12//12
f 14//14 13//13 6//6
f 15//15 11//11 14//14
f 16//16 10//10 15//15
f 16//16 15//15 8//8
