# Alias OBJ Model File
# Exported from SketchUp, (c) 2000-2012 Trimble Navigation Limited
# File units = meters

mtllib well.mtl

g Mesh1 Model

usemtl FrontColor
v -51.5339 0 -52.037
vt 2028.9 2048.7
vn 0 -1 -0
v -51.5339 0 51.0309
vt 2028.9 -2009.09
v -72.88 0 -0.503045
vt 2869.29 19.8049
f 1/1/1 2/2/1 3/3/1

v -1.33878e-014 0 72.377
vt 5.2708e-013 -2849.49
f 2/2/1 1/1/1 4/4/1

v 4.46261e-015 0 -73.383
vt -1.75693e-013 2889.1
f 4/4/1 1/1/1 5/5/1

v 4.46261e-015 47.69 -73.383
vt 1105.61 1877.56
vn 0.382683 0 0.92388
vt -1090.45 0
vt 1105.61 0
f 6/6/2 1/7/2 5/8/2

v -51.5339 47.69 -52.037
vt -1090.45 1877.56
f 1/7/2 6/6/2 7/9/2

v 5.00881e-015 47.69 -81.8
vt 1.97197e-013 3220.47
vn 0 1 -0
vt -2028.9 2048.7
vt 1.75693e-013 2889.1
f 8/10/3 7/11/3 6/12/3

v -57.8413 47.69 -57.8413
vt -2277.22 2277.22
f 9/13/3 7/11/3 8/10/3

v -72.88 47.69 -0.503045
vt -2869.29 19.8049
f 9/13/3 10/14/3 7/11/3

v -81.8 47.69 -1.00176e-014
vt -3220.47 3.94394e-013
f 10/14/3 9/13/3 11/15/3

vt -1232.42 1877.56
vn -0.92388 0 -0.382683
v -81.8 0 -1.00176e-014
vt 1232.42 0
vt 1232.42 1877.56
f 9/16/4 12/17/4 11/18/4

v -57.8413 0 -57.8413
vt -1232.42 0
f 12/17/4 9/16/4 13/19/4

vn -0.382683 0 -0.92388
v 5.00881e-015 0 -81.8
f 9/18/5 14/19/5 13/17/5

f 14/19/5 9/18/5 8/16/5

vn 0.382683 0 -0.92388
v 57.8413 0 -57.8413
f 8/18/6 15/19/6 14/17/6

v 57.8413 47.69 -57.8413
f 15/19/6 8/18/6 16/16/6

v 51.5339 47.69 -52.037
vt 2277.22 2277.22
f 8/10/3 17/1/3 16/20/3

f 8/10/3 6/12/3 17/1/3

vt -1105.61 0
vn -0.382683 0 0.92388
vt 1090.45 1877.56
vt -1105.61 1877.56
f 5/21/7 17/22/7 6/23/7

v 51.5339 0 -52.037
vt 1090.45 0
f 17/22/7 5/21/7 18/24/7

v 51.5339 0 51.0309
vt -2028.9 -2009.09
f 19/25/1 5/5/1 18/11/1

f 4/4/1 5/5/1 19/25/1

v -1.33878e-014 47.69 72.377
f 20/22/5 19/21/5 4/24/5

v 51.5339 47.69 51.0309
f 19/21/5 20/22/5 21/23/5

vt -5.2708e-013 -2849.49
v 57.8413 47.69 57.8413
vt 2277.22 -2277.22
f 20/26/3 22/27/3 21/2/3

v -1.50264e-014 47.69 81.8
vt -5.91591e-013 -3220.47
f 20/26/3 23/28/3 22/27/3

v -51.5339 47.69 51.0309
f 24/25/3 23/28/3 20/26/3

v -57.8413 47.69 57.8413
vt -2277.22 -2277.22
f 24/25/3 25/29/3 23/28/3

f 10/14/3 25/29/3 24/25/3

f 25/29/3 10/14/3 11/15/3

vn -0.92388 0 0.382683
v -57.8413 0 57.8413
f 11/16/8 26/17/8 25/18/8

f 26/17/8 11/16/8 12/19/8

vn 0.92388 0 -0.382683
v -81.8 -6.07 -1.00176e-014
vt 1232.42 -238.976
f 26/19/9 27/30/9 12/17/9

v -57.8413 -6.07 57.8413
vt -1232.42 -238.976
f 27/30/9 26/19/9 28/31/9

v -1.50264e-014 -6.07 81.8
f 26/17/6 29/31/6 28/30/6

v -1.50264e-014 0 81.8
f 29/31/6 26/17/6 30/19/6

f 23/18/7 26/19/7 30/17/7

f 26/19/7 23/18/7 25/16/7

vt 5.91591e-013 -3220.47
f 26/27/1 2/2/1 30/32/1

f 26/27/1 3/3/1 2/2/1

vt 3220.47 3.94394e-013
f 3/3/1 26/27/1 12/33/1

v -77.3928 0 77.3928
vt -3046.96 -3046.96
f 12/15/3 31/34/3 26/29/3

v -109.45 0 -1.34038e-014
vt -4309.06 5.27707e-013
f 31/34/3 12/15/3 32/35/3

v -77.3928 0 -77.3928
vt -3046.96 3046.96
f 12/15/3 33/36/3 32/35/3

f 33/36/3 12/15/3 13/13/3

vn 0.92388 0 0.382683
v -57.8413 -6.07 -57.8413
f 12/19/10 34/30/10 13/17/10

f 34/30/10 12/19/10 27/31/10

v -77.3928 -6.07 -77.3928
vt 3046.96 3046.96
f 27/33/1 35/37/1 34/20/1

v -109.45 -6.07 -1.34038e-014
vt 4309.06 5.27707e-013
f 35/37/1 27/33/1 36/38/1

v -77.3928 -6.07 77.3928
vt 3046.96 -3046.96
f 27/33/1 37/39/1 36/38/1

f 37/39/1 27/33/1 28/27/1

v -2.01056e-014 -6.07 109.45
vt 7.91561e-013 -4309.06
f 37/39/1 28/27/1 38/40/1

f 38/40/1 28/27/1 29/32/1

v 77.3928 -6.07 77.3928
f 38/40/1 29/32/1 39/34/1

v 57.8413 -6.07 57.8413
f 39/34/1 29/32/1 40/29/1

f 30/17/5 40/31/5 29/30/5

v 57.8413 0 57.8413
f 40/31/5 30/17/5 41/19/5

f 30/32/1 4/4/1 41/29/1

f 30/32/1 2/2/1 4/4/1

f 24/6/6 4/7/6 2/8/6

f 4/7/6 24/6/6 20/9/6

vt 1116.33 0
vt -1079.73 1877.56
vt -1079.73 0
f 3/41/9 24/42/9 2/43/9

vt 1116.33 1877.56
f 24/42/9 3/41/9 10/44/9

f 1/41/10 10/42/10 3/43/10

f 10/42/10 1/41/10 7/44/10

f 3/3/1 13/20/1 1/1/1

f 13/20/1 3/3/1 12/33/1

vt -1.97197e-013 3220.47
f 1/1/1 13/20/1 14/45/1

f 34/31/2 14/17/2 13/19/2

v 5.00881e-015 -6.07 -81.8
f 14/17/2 34/31/2 42/30/2

v 6.70188e-015 -6.07 -109.45
vt -2.63854e-013 4309.06
f 34/20/1 43/46/1 42/45/1

f 34/20/1 35/37/1 43/46/1

vt 1649 0
vt -1649 -238.976
vt 1649 -238.976
f 33/47/5 43/48/5 35/49/5

v 6.70188e-015 0 -109.45
vt -1649 0
f 43/48/5 33/47/5 44/50/5

vt 2.63854e-013 4309.06
f 33/36/3 13/13/3 44/51/3

f 44/51/3 13/13/3 14/10/3

f 44/51/3 14/10/3 15/20/3

f 42/31/7 15/17/7 14/19/7

v 57.8413 -6.07 -57.8413
f 15/17/7 42/31/7 45/30/7

f 42/45/1 43/46/1 45/13/1

v 77.3928 -6.07 -77.3928
f 45/13/1 43/46/1 46/36/1

f 44/47/6 46/48/6 43/49/6

v 77.3928 0 -77.3928
f 46/48/6 44/47/6 47/50/6

f 44/51/3 15/20/3 47/37/3

v 81.8 0 -0
vt 3220.47 0
f 47/37/3 15/20/3 48/52/3

v 81.8 47.69 -0
f 15/17/9 49/16/9 48/19/9

f 49/16/9 15/17/9 16/18/9

v 72.88 47.69 -0.503045
f 16/20/3 50/3/3 49/52/3

f 16/20/3 17/1/3 50/3/3

vt -1116.33 1877.56
v 72.88 0 -0.503045
vt 1079.73 0
vt 1079.73 1877.56
f 17/53/8 51/54/8 50/55/8

vt -1116.33 0
f 51/54/8 17/53/8 18/56/8

f 19/25/1 18/11/1 51/14/1

f 18/11/1 15/13/1 51/14/1

f 18/11/1 14/45/1 15/13/1

f 5/5/1 14/45/1 18/11/1

f 1/1/1 14/45/1 5/5/1

vt -3220.47 0
f 51/14/1 15/13/1 48/57/1

v 81.8 -6.07 -0
f 15/19/8 52/30/8 48/17/8

f 52/30/8 15/19/8 45/31/8

f 45/13/1 46/36/1 52/57/1

v 109.45 -6.07 -0
vt -4309.06 0
f 52/57/1 46/36/1 53/58/1

v 109.45 0 -0
f 46/49/9 54/50/9 53/48/9

f 54/50/9 46/49/9 47/47/9

vt 4309.06 0
f 47/37/3 48/52/3 54/59/3

v 77.3928 0 77.3928
f 48/52/3 55/39/3 54/59/3

f 41/27/3 55/39/3 48/52/3

f 30/28/3 55/39/3 41/27/3

v -2.01056e-014 0 109.45
vt -7.91561e-013 -4309.06
f 30/28/3 56/60/3 55/39/3

f 26/29/3 56/60/3 30/28/3

f 26/29/3 31/34/3 56/60/3

f 37/48/7 56/47/7 31/50/7

f 56/47/7 37/48/7 38/49/7

f 38/48/2 55/47/2 56/50/2

f 55/47/2 38/48/2 39/49/2

f 53/49/10 55/50/10 39/48/10

f 55/50/10 53/49/10 54/47/10

f 39/34/1 52/57/1 53/58/1

f 39/34/1 40/29/1 52/57/1

f 40/30/4 48/19/4 52/31/4

f 48/19/4 40/30/4 41/17/4

f 41/29/1 51/14/1 48/57/1

f 41/29/1 19/25/1 51/14/1

f 41/29/1 4/4/1 19/25/1

f 19/54/4 50/53/4 51/56/4

f 50/53/4 19/54/4 21/55/4

f 21/2/3 22/27/3 50/3/3

f 50/3/3 22/27/3 49/52/3

f 22/16/10 48/17/10 49/18/10

f 48/17/10 22/16/10 41/19/10

f 22/18/2 30/19/2 41/17/2

f 30/19/2 22/18/2 23/16/2

f 32/50/8 37/49/8 31/47/8

f 37/49/8 32/50/8 36/48/8

f 33/50/4 36/49/4 32/47/4

f 36/49/4 33/50/4 35/48/4

